<svg width="169" height="29" viewBox="0 0 169 29" fill="none" xmlns="http://www.w3.org/2000/svg">
<g clip-path="url(#clip0_1_3)">
<path d="M0.777658 18.9251C0.777658 17.0771 1.17366 15.4451 1.96566 14.0291C2.75766 12.5891 3.83766 11.4611 5.20566 10.6451C6.59766 9.82906 8.19366 9.42106 9.99366 9.42106C12.6577 9.42106 14.8177 10.1051 16.4737 11.4731C18.1297 12.8411 19.0417 14.7011 19.2097 17.0531H13.6297C13.4377 16.1411 13.0537 15.4691 12.4777 15.0371C11.9257 14.6051 11.1697 14.3891 10.2097 14.3891C9.44166 14.3891 8.75766 14.5811 8.15766 14.9651C7.58166 15.3251 7.13766 15.8411 6.82566 16.5131C6.51366 17.1851 6.35766 17.9891 6.35766 18.9251C6.35766 19.8851 6.50166 20.7131 6.78966 21.4091C7.10166 22.0811 7.53366 22.5971 8.08566 22.9571C8.66166 23.3171 9.34566 23.4971 10.1377 23.4971C11.1217 23.4971 11.9017 23.2811 12.4777 22.8491C13.0777 22.3931 13.4617 21.7211 13.6297 20.8331H19.2097C19.0897 22.3451 18.6217 23.6771 17.8057 24.8291C17.0137 25.9571 15.9577 26.8451 14.6377 27.4931C13.3177 28.1411 11.8177 28.4651 10.1377 28.4651C8.24166 28.4651 6.58566 28.0691 5.16966 27.2771C3.77766 26.4851 2.69766 25.3811 1.92966 23.9651C1.16166 22.5251 0.777658 20.8451 0.777658 18.9251ZM34.6298 9.99706V15.2171H32.8658C31.2818 15.2171 30.0338 15.6011 29.1218 16.3691C28.2338 17.1371 27.7898 18.4091 27.7898 20.1851V27.9971H22.2458V10.0331H27.4658L27.8978 13.8851H27.3938C27.6338 12.6851 28.1738 11.7011 29.0138 10.9331C29.8778 10.1411 31.0418 9.74506 32.5058 9.74506C32.8418 9.74506 33.1778 9.76906 33.5138 9.81706C33.8738 9.84106 34.2458 9.90106 34.6298 9.99706ZM35.9339 18.9611C35.9339 17.0651 36.3539 15.4091 37.1939 13.9931C38.0579 12.5531 39.2339 11.4371 40.7219 10.6451C42.2339 9.85306 43.9499 9.45706 45.8699 9.45706C47.7899 9.45706 49.4939 9.85306 50.9819 10.6451C52.4699 11.4371 53.6339 12.5531 54.4739 13.9931C55.3379 15.4091 55.7699 17.0651 55.7699 18.9611C55.7699 20.8571 55.3379 22.5131 54.4739 23.9291C53.6339 25.3451 52.4699 26.4491 50.9819 27.2411C49.4939 28.0331 47.7899 28.4291 45.8699 28.4291C43.9499 28.4291 42.2339 28.0331 40.7219 27.2411C39.2339 26.4491 38.0579 25.3451 37.1939 23.9291C36.3539 22.5131 35.9339 20.8571 35.9339 18.9611ZM41.5139 18.9251C41.5139 19.8371 41.6939 20.6411 42.0539 21.3371C42.4379 22.0091 42.9539 22.5371 43.6019 22.9211C44.2499 23.2811 45.0059 23.4611 45.8699 23.4611C46.7339 23.4611 47.4899 23.2811 48.1379 22.9211C48.7859 22.5371 49.2899 22.0091 49.6499 21.3371C50.0099 20.6411 50.1899 19.8371 50.1899 18.9251C50.1899 18.0131 50.0099 17.2211 49.6499 16.5491C49.2899 15.8771 48.7859 15.3611 48.1379 15.0011C47.4899 14.6171 46.7339 14.4251 45.8699 14.4251C45.0059 14.4251 44.2499 14.6171 43.6019 15.0011C42.9539 15.3611 42.4379 15.8771 42.0539 16.5491C41.6939 17.2211 41.5139 18.0131 41.5139 18.9251ZM64.528 27.9971H58.984V9.99706H64.204L64.564 11.8691C65.116 11.1011 65.872 10.5011 66.832 10.0691C67.816 9.63706 68.896 9.42106 70.072 9.42106C72.208 9.42106 73.864 10.0811 75.04 11.4011C76.24 12.6971 76.84 14.5211 76.84 16.8731V27.9971H71.296V18.2051C71.296 17.0771 71.008 16.1771 70.432 15.5051C69.856 14.8091 69.088 14.4611 68.128 14.4611C67.024 14.4611 66.148 14.7971 65.5 15.4691C64.852 16.1171 64.528 17.0051 64.528 18.1331V27.9971Z" fill="#26A69A"/>
<path d="M86.3601 27.9971H80.8161V0.853058H86.3961V11.8691C86.9481 11.1011 87.7041 10.5011 88.6641 10.0691C89.6481 9.63706 90.7281 9.42106 91.9041 9.42106C94.0401 9.42106 95.6961 10.0811 96.8721 11.4011C98.0721 12.6971 98.6721 14.5211 98.6721 16.8731V27.9971H93.1281V18.2051C93.1281 17.4371 92.9961 16.7771 92.7321 16.2251C92.4681 15.6731 92.0961 15.2411 91.6161 14.9291C91.1601 14.6171 90.6081 14.4611 89.9601 14.4611C89.2401 14.4611 88.6041 14.6171 88.0521 14.9291C87.5241 15.2171 87.1041 15.6371 86.7921 16.1891C86.5041 16.7411 86.3601 17.3891 86.3601 18.1331V27.9971ZM101.676 18.9611C101.676 17.0651 102.096 15.4091 102.936 13.9931C103.8 12.5531 104.976 11.4371 106.464 10.6451C107.976 9.85306 109.692 9.45706 111.612 9.45706C113.532 9.45706 115.236 9.85306 116.724 10.6451C118.212 11.4371 119.376 12.5531 120.216 13.9931C121.08 15.4091 121.512 17.0651 121.512 18.9611C121.512 20.8571 121.08 22.5131 120.216 23.9291C119.376 25.3451 118.212 26.4491 116.724 27.2411C115.236 28.0331 113.532 28.4291 111.612 28.4291C109.692 28.4291 107.976 28.0331 106.464 27.2411C104.976 26.4491 103.8 25.3451 102.936 23.9291C102.096 22.5131 101.676 20.8571 101.676 18.9611ZM107.256 18.9251C107.256 19.8371 107.436 20.6411 107.796 21.3371C108.18 22.0091 108.696 22.5371 109.344 22.9211C109.992 23.2811 110.748 23.4611 111.612 23.4611C112.476 23.4611 113.232 23.2811 113.88 22.9211C114.528 22.5371 115.032 22.0091 115.392 21.3371C115.752 20.6411 115.932 19.8371 115.932 18.9251C115.932 18.0131 115.752 17.2211 115.392 16.5491C115.032 15.8771 114.528 15.3611 113.88 15.0011C113.232 14.6171 112.476 14.4251 111.612 14.4251C110.748 14.4251 109.992 14.6171 109.344 15.0011C108.696 15.3611 108.18 15.8771 107.796 16.5491C107.436 17.2211 107.256 18.0131 107.256 18.9251ZM123.43 22.3091H128.686C128.734 22.9331 128.986 23.4251 129.442 23.7851C129.898 24.1451 130.546 24.3251 131.386 24.3251C132.25 24.3251 132.886 24.1811 133.294 23.8931C133.702 23.6051 133.906 23.2331 133.906 22.7771C133.906 22.5131 133.798 22.2491 133.582 21.9851C133.39 21.7211 132.958 21.5171 132.286 21.3731L128.974 20.6531C127.318 20.2931 126.082 19.7171 125.266 18.9251C124.45 18.1091 124.042 16.9091 124.042 15.3251C124.042 14.0771 124.366 13.0211 125.014 12.1571C125.686 11.2691 126.586 10.5971 127.714 10.1411C128.842 9.66106 130.126 9.42106 131.566 9.42106C132.958 9.42106 134.182 9.67306 135.238 10.1771C136.318 10.6811 137.158 11.3891 137.758 12.3011C138.358 13.2131 138.658 14.2811 138.658 15.5051H133.402C133.402 14.8811 133.222 14.3891 132.862 14.0291C132.502 13.6451 131.986 13.4531 131.314 13.4531C130.69 13.4531 130.186 13.6091 129.802 13.9211C129.442 14.2091 129.262 14.5931 129.262 15.0731C129.262 15.8411 129.91 16.3691 131.206 16.6571L134.554 17.3771C136.042 17.6891 137.17 18.2291 137.938 18.9971C138.73 19.7411 139.126 20.8331 139.126 22.2731C139.126 23.5451 138.79 24.6491 138.118 25.5851C137.446 26.5211 136.51 27.2411 135.31 27.7451C134.11 28.2251 132.73 28.4651 131.17 28.4651C128.794 28.4651 126.91 27.9011 125.518 26.7731C124.126 25.6211 123.43 24.1331 123.43 22.3091ZM140.331 9.99706H152.715V14.6051H140.331V9.99706ZM149.295 27.9971H143.751V4.41706H149.295V27.9971ZM157.062 7.72906L154.542 6.82906L155.55 4.23706L157.962 5.02906C158.562 5.22106 159.042 5.42506 159.402 5.64106C159.762 5.85706 160.122 6.09706 160.482 6.36106C160.386 5.92906 160.302 5.49706 160.23 5.06506C160.182 4.60906 160.158 4.09306 160.158 3.51706V0.853058H162.93V3.51706C162.93 4.09306 162.894 4.60906 162.822 5.06506C162.774 5.52106 162.702 5.95306 162.606 6.36106C162.942 6.12106 163.302 5.89306 163.686 5.67706C164.07 5.43706 164.562 5.22106 165.162 5.02906L167.61 4.23706L168.582 6.82906L166.026 7.72906C165.498 7.92106 164.994 8.05306 164.514 8.12506C164.058 8.19706 163.626 8.25706 163.218 8.30506C163.626 8.61706 163.974 8.92906 164.262 9.24106C164.574 9.52906 164.874 9.90106 165.162 10.3571L166.638 12.6251L164.37 14.1731L162.858 12.0491C162.498 11.5451 162.21 11.0891 161.994 10.6811C161.802 10.2731 161.634 9.88906 161.49 9.52906C161.37 10.0091 161.19 10.4651 160.95 10.8971C160.734 11.3291 160.494 11.7131 160.23 12.0491L158.61 14.1731L156.342 12.6251L157.89 10.3571C158.226 9.87706 158.538 9.49306 158.826 9.20506C159.138 8.91706 159.486 8.61706 159.87 8.30506C159.39 8.25706 158.934 8.19706 158.502 8.12506C158.094 8.05306 157.614 7.92106 157.062 7.72906Z" fill="#8E44AD"/>
</g>
<defs>
<clipPath id="clip0_1_3">
<rect width="169" height="29" fill="white"/>
</clipPath>
</defs>
</svg>
